<?xml version="1.0" encoding="utf-8"?>
<svg version="1.1" id="Layer_1" xmlns="http://www.w3.org/2000/svg" xmlns:xlink="http://www.w3.org/1999/xlink" x="0px" y="0px"
	 viewBox="0 0 1000 1000" style="enable-background:new 0 0 1000 1000;" xml:space="preserve">
<style type="text/css">
	.st0{fill:#FF00FE;}
	.st1{fill:#0000FE;}
	.st2{fill:#00FF01;}
	.st3{fill:#FFFF01;}
	.st4{fill:#FF7F00;}
	.st5{fill:#FE0000;}
	.st6{fill:none;stroke:#000000;stroke-miterlimit:10;}
	.st7{fill:#FFFFFF;}
	.st8{fill:#1B5199;}
	.st9{fill:#165098;}
	.st10{fill:#5C9DD5;}
</style>
<path class="st0" d="M500,500L32.4,322.5c57.7-151.9,187.2-268.3,347-307.9L500,500z"/>
<path class="st1" d="M887.7,184.2L500,500L379.4,14.6C418,5.1,458.4,0,500,0C656.4,0,796,71.8,887.7,184.2z"/>
<path class="st2" d="M1000,500c0,62.5-11.5,122.3-32.4,177.5L500,500l387.7-315.8C957.9,270.3,1000,380.3,1000,500z"/>
<path class="st3" d="M967.6,677.5c-57.7,151.9-187.2,268.3-347,307.9L500,500L967.6,677.5z"/>
<path class="st4" d="M620.6,985.4c-38.6,9.6-79,14.6-120.6,14.6c-156.4,0-296-71.8-387.7-184.2L500,500L620.6,985.4z"/>
<path class="st5" d="M500,500L112.3,815.8C42.1,729.7,0,619.8,0,500c0-62.5,11.5-122.3,32.4-177.5L500,500z"/>
<line class="st6" x1="887.8" y1="184.2" x2="887.7" y2="184.2"/>
<line class="st6" x1="112.3" y1="815.8" x2="112.2" y2="815.8"/>
<g>
	<circle class="st7" cx="500" cy="500" r="251"/>
	<path class="st8" d="M500,762c-70,0-135.8-27.3-185.3-76.7C265.3,635.8,238,570,238,500c0-70,27.3-135.8,76.7-185.3
		C364.2,265.3,430,238,500,238c70,0,135.8,27.3,185.3,76.7C734.7,364.2,762,430,762,500c0,70-27.3,135.8-76.7,185.3S570,762,500,762
		z M500,260c-132.3,0-240,107.7-240,240c0,132.3,107.7,240,240,240c132.3,0,240-107.7,240-240C740,367.7,632.3,260,500,260z"/>
</g>
<g>
	<path class="st9" d="M368.6,357.5c-16,13.4-32.4,29.8-39.1,49.9c-7.7,23.7,3.1,47.9,13.4,69c10.3,21.6,21.6,42.7,31.4,64.8
		c7.7,17.5,18.5,38.1,16,57.7c-2.1,13.9-6.7,27.3-9.3,41.2c-2.1,9.3,6.7,0,9.8-2.6c18-15.4,37.6-32.9,44.8-56.6
		c3.6-11.8,1.5-22.7-2.6-34c-4.1-10.8-8.8-21.1-13.4-31.9c-9.8-21.6-20.1-43.2-30.4-64.9c-4.1-7.7-8.2-16-11.8-24.2
		c-3.6-8.8-5.7-18-6.2-27.8c-0.5-7.7-0.5-14.9,0.5-22.7c0.5-5.7,2.1-10.8,2.6-16.5C374.8,355.9,372.2,354.9,368.6,357.5L368.6,357.5
		z M604.4,357.5c-16,13.4-32.4,29.9-39.1,49.9c-7.7,23.7,3.1,47.9,13.4,69c10.3,21.6,21.6,42.7,31.4,64.9
		c7.7,17.5,18.5,38.1,16,57.7c-2.1,13.9-6.7,27.3-9.3,41.2c-2.1,9.3,6.7,0,9.8-2.6c18-15.4,37.6-32.9,44.8-56.6
		c3.6-11.8,1.5-22.7-2.6-34c-4.1-10.8-8.8-21.1-13.4-31.9c-9.8-21.6-20.1-43.2-30.4-64.9c-4.1-7.7-8.2-16-11.8-24.2
		c-3.6-8.8-5.7-18-6.2-27.8c-0.5-7.7-0.5-14.9,0.5-22.7c0.5-5.7,2.1-10.8,2.6-16.5C610.6,355.9,608,354.9,604.4,357.5L604.4,357.5z"
		/>
	<path class="st10" d="M482.9,318.3c-18,14.9-37.6,32.9-48.4,54c-7.7,14.9-8.8,30.4-4.6,45.8c5.2,18.5,12.3,37.1,20.1,55.1
		c14.9,34.5,34.5,66.9,48.9,101.9c5.2,12.3,10.8,26.3,11.8,40.2c1,17-4.6,35-9.3,51c-1,4.6-4.1,10.8-3.6,15.4
		c0.5,3.6,2.6,2.1,4.6,0.5c8.8-6.7,17.5-14.4,25.2-22.1c21.1-20.1,45.3-46.9,43.2-78.2c-1-12.9-7.2-25.2-12.3-37.1
		c-5.7-13.9-11.8-27.2-18-40.6c-11.3-25.2-23.2-49.9-35.5-74.7c-4.1-8.8-9.3-17-12.3-25.7c-4.6-11.8-6.7-24.2-7.2-36.5
		c-0.5-9.3,0-19,1-28.3c0.5-6.2,2.6-11.8,2.6-18C490.6,315.3,487.5,314.7,482.9,318.3L482.9,318.3z"/>
</g>
</svg>
